<?xml version="1.0" encoding="UTF-8"?>
<svg width="64" height="64" viewBox="0 0 24 24" fill="none" xmlns="http://www.w3.org/2000/svg" aria-hidden="true">
  <rect x="1" y="3" width="22" height="14" rx="3" fill="#E6F6FF"/>
  <path d="M5 7h14" stroke="#0369A1" stroke-width="1.2" stroke-linecap="round"/>
  <path d="M5 10h8" stroke="#0369A1" stroke-width="1.2" stroke-linecap="round"/>
  <path d="M7 19c0-1.657 3.134-3 7-3s7 1.343 7 3v0" stroke="#CBD5E1" stroke-width="1.2" stroke-linecap="round" stroke-linejoin="round"/>
</svg>
<path d="M0 0 C1.347 -0.005 2.693 -0.01 4.04 -0.015 C7.673 -0.028 11.306 -0.035 14.939 -0.039 C17.22 -0.042 19.502 -0.046 21.783 -0.051 C28.954 -0.064 36.126 -0.074 43.297 -0.078 C51.512 -0.082 59.727 -0.1 67.942 -0.129 C74.332 -0.151 80.722 -0.16 87.113 -0.162 C90.91 -0.163 94.707 -0.168 98.504 -0.187 C142.761 -0.386 180.308 7.988 213.346 39.161 C214.146 39.884 214.945 40.607 215.768 41.353 C240.474 64.602 253.654 98.721 255.346 132.161 C255.522 138.936 255.532 145.711 255.532 152.488 C255.534 155.654 255.552 158.819 255.571 161.985 C255.631 183.095 253.183 200.772 238.221 216.786 C221.291 232.955 201.462 232.766 179.462 232.684 C175.822 232.675 172.182 232.689 168.542 232.7 C161.43 232.718 154.319 232.714 147.207 232.702 C141.422 232.693 135.637 232.692 129.853 232.696 C128.613 232.697 128.613 232.697 127.349 232.698 C125.67 232.7 123.991 232.701 122.312 232.702 C106.603 232.714 90.893 232.7 75.184 232.679 C61.732 232.661 48.28 232.664 34.828 232.683 C19.171 232.704 3.514 232.712 -12.142 232.7 C-13.815 232.699 -15.487 232.698 -17.16 232.696 C-17.983 232.696 -18.805 232.695 -19.653 232.695 C-25.424 232.691 -31.196 232.697 -36.967 232.706 C-44.01 232.718 -51.052 232.714 -58.095 232.693 C-61.681 232.683 -65.268 232.678 -68.855 232.692 C-90.673 232.766 -109.315 232.215 -126.029 216.349 C-141.587 199.867 -143.002 180.756 -142.914 159.164 C-142.904 156.064 -142.914 152.964 -142.927 149.864 C-142.958 108.393 -132.591 72.778 -103.654 42.161 C-102.845 41.277 -102.037 40.393 -101.204 39.481 C-74.922 11.745 -37.355 0.034 0 0 Z M-85.216 67.849 C-95.571 79.667 -102.783 93.497 -107.404 108.474 C-107.602 109.1 -107.801 109.726 -108.006 110.371 C-112.019 124.224 -112.001 138.751 -111.969 153.045 C-111.966 156.053 -111.99 159.06 -112.015 162.067 C-112.017 164.013 -112.018 165.958 -112.017 167.903 C-112.026 168.786 -112.035 169.668 -112.045 170.578 C-111.977 179.849 -110.039 187.685 -103.556 194.47 C-98.161 199.266 -92.752 201.283 -85.592 201.293 C-84.051 201.298 -84.051 201.298 -82.48 201.304 C-81.353 201.303 -80.226 201.302 -79.065 201.302 C-77.867 201.305 -76.668 201.308 -75.434 201.311 C-72.106 201.318 -68.779 201.32 -65.451 201.321 C-61.863 201.323 -58.274 201.331 -54.686 201.337 C-46.839 201.351 -38.991 201.357 -31.144 201.361 C-26.244 201.364 -21.344 201.368 -16.444 201.373 C-2.876 201.385 10.691 201.395 24.259 201.399 C25.127 201.399 25.996 201.399 26.89 201.399 C28.196 201.4 28.196 201.4 29.528 201.4 C31.292 201.4 33.055 201.401 34.819 201.401 C35.694 201.402 36.569 201.402 37.47 201.402 C51.646 201.406 65.821 201.423 79.997 201.447 C94.551 201.47 109.106 201.483 123.661 201.484 C131.832 201.485 140.004 201.491 148.175 201.509 C155.134 201.524 162.092 201.529 169.05 201.521 C172.6 201.517 176.149 201.518 179.698 201.532 C183.549 201.547 187.399 201.539 191.25 201.529 C192.368 201.537 193.486 201.545 194.638 201.553 C203.986 201.494 210.62 199.598 217.585 193.126 C224.095 185.866 224.503 177.705 224.514 168.392 C224.518 167.438 224.521 166.484 224.524 165.501 C224.53 163.48 224.532 161.458 224.532 159.437 C224.534 156.397 224.552 153.359 224.571 150.319 C224.615 135.682 224.178 121.318 219.784 107.224 C219.399 105.974 219.399 105.974 219.006 104.7 C210.268 77.804 190.683 55.345 165.553 42.515 C148.201 34.06 131.076 31.009 111.879 31.016 C110.541 31.013 109.203 31.009 107.864 31.006 C104.252 30.997 100.641 30.995 97.029 30.994 C94.765 30.993 92.501 30.991 90.237 30.988 C82.317 30.979 74.397 30.975 66.477 30.976 C59.129 30.976 51.782 30.966 44.434 30.95 C38.097 30.937 31.761 30.932 25.424 30.932 C21.652 30.933 17.88 30.93 14.109 30.919 C10.555 30.909 7.002 30.909 3.449 30.917 C1.548 30.918 -0.353 30.91 -2.254 30.901 C-35.023 31.019 -62.84 44.154 -85.216 67.849 Z " fill="#464646" transform="translate(601.653564453125,525.8388671875)"/>
<path d="M0 0 C1.044 -0.004 2.088 -0.008 3.163 -0.012 C4.314 -0.011 5.464 -0.01 6.65 -0.009 C7.869 -0.012 9.088 -0.015 10.344 -0.018 C13.735 -0.025 17.126 -0.028 20.517 -0.029 C24.171 -0.03 27.826 -0.038 31.48 -0.045 C39.474 -0.058 47.468 -0.064 55.461 -0.069 C60.451 -0.072 65.441 -0.076 70.431 -0.08 C84.244 -0.092 98.056 -0.103 111.868 -0.106 C113.194 -0.106 113.194 -0.106 114.547 -0.107 C115.877 -0.107 115.877 -0.107 117.233 -0.107 C119.029 -0.108 120.825 -0.108 122.621 -0.109 C123.512 -0.109 124.403 -0.109 125.321 -0.109 C139.76 -0.113 154.199 -0.131 168.637 -0.154 C183.456 -0.178 198.276 -0.19 213.095 -0.192 C221.417 -0.192 229.739 -0.198 238.062 -0.216 C245.148 -0.232 252.234 -0.237 259.32 -0.229 C262.936 -0.225 266.552 -0.226 270.168 -0.24 C274.087 -0.255 278.006 -0.247 281.925 -0.236 C283.069 -0.244 284.213 -0.252 285.392 -0.26 C292.742 -0.214 297.256 0.591 302.791 5.756 C305.691 9.539 306.248 13.443 305.978 18.131 C304.307 24.029 301.781 26.657 296.978 30.131 C294.491 31.375 292.831 31.26 290.048 31.266 C288.999 31.27 287.95 31.275 286.87 31.279 C285.708 31.279 284.547 31.279 283.351 31.279 C282.124 31.282 280.898 31.286 279.634 31.29 C276.218 31.299 272.802 31.303 269.386 31.306 C265.707 31.31 262.027 31.32 258.347 31.328 C249.455 31.348 240.563 31.358 231.671 31.367 C227.486 31.371 223.3 31.377 219.115 31.382 C205.206 31.399 191.297 31.414 177.388 31.421 C173.777 31.423 170.166 31.425 166.556 31.427 C165.658 31.427 164.761 31.428 163.836 31.428 C149.294 31.436 134.752 31.462 120.209 31.494 C105.286 31.527 90.363 31.545 75.44 31.548 C67.058 31.551 58.677 31.559 50.295 31.585 C43.158 31.607 36.02 31.615 28.883 31.605 C25.241 31.6 21.599 31.602 17.956 31.622 C14.009 31.643 10.061 31.632 6.113 31.619 C4.961 31.63 3.809 31.641 2.621 31.652 C-5.275 31.588 -8.601 30.368 -14.334 24.944 C-16.676 21.041 -17.34 17.669 -17.022 13.131 C-15.425 7.795 -12.747 4.16 -8.022 1.131 C-5.047 0.14 -3.105 0.004 0 0 Z " fill="#464646" transform="translate(175.02197742462158,296.8685722351074)"/>
<path d="M0 0 C0.838 -0.004 1.675 -0.009 2.538 -0.014 C3.459 -0.013 4.379 -0.013 5.327 -0.013 C6.794 -0.018 6.794 -0.018 8.29 -0.024 C11.581 -0.035 14.872 -0.039 18.163 -0.043 C20.517 -0.049 22.87 -0.056 25.224 -0.063 C32.297 -0.082 39.37 -0.093 46.444 -0.101 C49.775 -0.106 53.107 -0.111 56.438 -0.116 C67.513 -0.133 78.588 -0.148 89.662 -0.155 C92.536 -0.157 95.409 -0.159 98.283 -0.161 C98.997 -0.161 99.712 -0.162 100.447 -0.162 C112.018 -0.171 123.588 -0.196 135.158 -0.229 C147.038 -0.262 158.918 -0.28 170.798 -0.283 C177.467 -0.285 184.137 -0.294 190.807 -0.319 C197.081 -0.343 203.355 -0.347 209.629 -0.337 C211.932 -0.336 214.235 -0.342 216.538 -0.356 C219.682 -0.374 222.825 -0.367 225.969 -0.354 C226.881 -0.364 227.792 -0.375 228.731 -0.387 C234.633 -0.327 238.051 0.726 242.902 4.134 C246.39 7.801 247.195 10.708 247.402 15.634 C247.216 20.534 246.254 23.41 242.902 27.134 C239.406 30.207 236.423 31.258 231.802 31.266 C230.963 31.269 230.125 31.273 229.261 31.277 C228.34 31.276 227.419 31.276 226.471 31.275 C225.492 31.278 224.514 31.281 223.506 31.284 C220.212 31.292 216.919 31.294 213.626 31.295 C211.27 31.3 208.915 31.305 206.56 31.31 C199.482 31.325 192.404 31.331 185.327 31.336 C181.994 31.338 178.661 31.342 175.328 31.346 C164.248 31.358 153.169 31.368 142.09 31.372 C141.027 31.372 141.027 31.372 139.942 31.372 C139.231 31.373 138.52 31.373 137.788 31.373 C136.347 31.374 134.907 31.374 133.466 31.374 C132.395 31.375 132.395 31.375 131.301 31.375 C119.724 31.379 108.147 31.397 96.569 31.42 C84.684 31.444 72.798 31.456 60.913 31.457 C54.239 31.458 47.566 31.464 40.892 31.482 C34.615 31.498 28.339 31.501 22.062 31.492 C19.757 31.491 17.452 31.495 15.147 31.505 C12.003 31.518 8.859 31.512 5.715 31.502 C4.343 31.514 4.343 31.514 2.944 31.526 C-3.734 31.474 -7.905 30.181 -12.91 25.509 C-15.81 21.727 -16.368 17.822 -16.098 13.134 C-14.43 7.246 -11.937 4.562 -7.098 1.134 C-4.376 0.227 -2.797 0.007 0 0 Z " fill="#464646" transform="translate(174.09775924682617,411.86577892303467)"/>
<path d="M0 0 C1.049 -0.009 2.097 -0.017 3.178 -0.026 C4.323 -0.025 5.468 -0.024 6.647 -0.023 C7.858 -0.03 9.068 -0.037 10.314 -0.043 C13.631 -0.059 16.947 -0.066 20.263 -0.067 C22.336 -0.069 24.409 -0.073 26.483 -0.078 C33.719 -0.097 40.955 -0.105 48.192 -0.103 C54.931 -0.102 61.67 -0.123 68.409 -0.155 C74.201 -0.181 79.992 -0.192 85.783 -0.19 C89.239 -0.19 92.696 -0.195 96.152 -0.217 C100.009 -0.24 103.865 -0.23 107.722 -0.218 C108.863 -0.23 110.004 -0.241 111.179 -0.252 C119.071 -0.19 122.396 1.034 128.126 6.455 C130.462 10.347 131 13.754 130.814 18.267 C129.146 24.155 126.653 26.84 121.814 30.267 C118.852 31.255 116.914 31.398 113.824 31.408 C112.278 31.416 112.278 31.416 110.702 31.425 C109.572 31.426 108.442 31.427 107.277 31.429 C105.492 31.436 105.492 31.436 103.67 31.444 C100.403 31.456 97.137 31.463 93.87 31.468 C91.828 31.471 89.786 31.475 87.744 31.479 C81.353 31.493 74.962 31.502 68.571 31.506 C61.198 31.511 53.826 31.528 46.454 31.557 C40.751 31.579 35.05 31.589 29.347 31.59 C25.943 31.591 22.54 31.597 19.136 31.615 C15.336 31.632 11.538 31.63 7.738 31.624 C6.053 31.638 6.053 31.638 4.333 31.652 C-1.242 31.622 -5.417 31.505 -10.186 28.267 C-13.607 24.657 -16.033 21.267 -16.292 16.197 C-16.042 10.752 -14.519 7.663 -10.854 3.678 C-7.378 0.739 -4.515 0.017 0 0 Z " fill="#464646" transform="translate(174.18612670898438,526.7325744628906)"/>
<path d="M0 0 C6.427 5.44 9.585 11.642 10.375 19.938 C10.083 26.685 7.883 33.249 3 38 C-4.418 43.384 -10.8 45.071 -20 44 C-28.176 41.321 -32.556 37.213 -36.812 29.875 C-39.455 22.955 -38.989 15.321 -36 8.625 C-32.527 2.523 -27.964 -0.836 -21.5 -3.375 C-13.391 -4.823 -7.197 -4.173 0 0 Z " fill="#464646" transform="translate(760,619)"/>
<path d="M0 0 C5.411 5.078 8.035 11.606 8.375 18.938 C8.031 25.976 5.925 31.852 0.812 36.82 C-6.222 42.336 -12.395 43.745 -21.25 42.938 C-27.741 41.438 -32.33 38.406 -36.438 33.125 C-40.184 26.537 -41.463 19.821 -39.633 12.453 C-37.125 5.131 -33.031 0.532 -26.234 -3.156 C-17.061 -7.057 -8.192 -5.199 0 0 Z " fill="#464646" transform="translate(586.25,620.0625)"/>
</svg>